<svg xmlns="http://www.w3.org/2000/svg" width="753.88330078125" height="719.867919921875" viewBox="-296.4733581542969 -371.2728576660156 753.88330078125 719.867919921875"><title>Neo4j Graph Visualization</title><desc>Created using Neo4j (http://www.neo4j.com/)</desc><g class="layer relationships"><g class="relationship" transform="translate(-152.79178330824422 -241.80487817113965) rotate(271.1928761098474)"><path class="outline" fill="#C990C0" stroke="none" d="M 25 0.5 L 27.957771339232877 0.5 L 27.957771339232877 -0.5 L 25 -0.5 Z M 65.53199008923288 0.5 L 68.48976142846575 0.5 L 68.48976142846575 3.5 L 75.48976142846575 0 L 68.48976142846575 -3.5 L 68.48976142846575 -0.5 L 65.53199008923288 -0.5 Z"/><text text-anchor="middle" pointer-events="none" font-size="8px" fill="#000000" x="46.74488071423288" y="3" font-family="sans-serif">islocated</text></g><g class="relationship" transform="translate(-152.79178330824422 -241.80487817113965) rotate(467.45432009390515)"><path class="outline" fill="#C990C0" stroke="none" d="M 25 0.5 L 59.09369824094847 0.5 L 59.09369824094847 -0.5 L 25 -0.5 Z M 96.66791699094847 0.5 L 130.76161523189694 0.5 L 130.76161523189694 3.5 L 137.76161523189694 0 L 130.76161523189694 -3.5 L 130.76161523189694 -0.5 L 96.66791699094847 -0.5 Z"/><text text-anchor="middle" pointer-events="none" font-size="8px" fill="#000000" x="77.88080761594847" y="3" transform="rotate(180 77.88080761594847 0)" font-family="sans-serif">islocated</text></g><g class="relationship" transform="translate(-152.79178330824422 -241.80487817113965) rotate(340.2537364121313)"><path class="outline" fill="#4C8EDA" stroke="none" d="M 25 0.5 L 52.225670078625996 0.5 L 52.225670078625996 -0.5 L 25 -0.5 Z M 84.022545078626 0.5 L 111.24821515725199 0.5 L 111.24821515725199 3.5 L 118.24821515725199 0 L 111.24821515725199 -3.5 L 111.24821515725199 -0.5 L 84.022545078626 -0.5 Z"/><text text-anchor="middle" pointer-events="none" font-size="8px" fill="#000000" x="68.124107578626" y="3" font-family="sans-serif">contain</text></g><g class="relationship" transform="translate(-152.79178330824422 -241.80487817113965) rotate(426.66998304356065)"><path class="outline" fill="#4C8EDA" stroke="none" d="M 25 0.5 L 46.210870275096255 0.5 L 46.210870275096255 -0.5 L 25 -0.5 Z M 78.00774527509625 0.5 L 99.21861555019251 0.5 L 99.21861555019251 3.5 L 106.21861555019251 0 L 99.21861555019251 -3.5 L 99.21861555019251 -0.5 L 78.00774527509625 -0.5 Z"/><text text-anchor="middle" pointer-events="none" font-size="8px" fill="#000000" x="62.109307775096255" y="3" font-family="sans-serif">contain</text></g><g class="relationship" transform="translate(-152.79178330824422 -241.80487817113965) rotate(533.587381414223)"><path class="outline" fill="#8DCC93" stroke="none" d="M 25 0.5 L 29.635396531681955 0.5 L 29.635396531681955 -0.5 L 25 -0.5 Z M 78.76820903168195 0.5 L 83.40360556336391 0.5 L 83.40360556336391 3.5 L 90.40360556336391 0 L 83.40360556336391 -3.5 L 83.40360556336391 -0.5 L 78.76820903168195 -0.5 Z"/><text text-anchor="middle" pointer-events="none" font-size="8px" fill="#000000" x="54.201802781681955" y="3" transform="rotate(180 54.201802781681955 0)" font-family="sans-serif">hasGeotime</text></g><g class="relationship" transform="translate(-46.435558131017466 98.77420303864639) rotate(256.1187348201407)"><path class="outline" fill="#4C8EDA" stroke="none" d="M 25 0.5 L 93.95661234502187 0.5 L 93.95661234502187 -0.5 L 25 -0.5 Z M 125.75348734502187 0.5 L 194.71009969004373 0.5 L 194.71009969004373 3.5 L 201.71009969004373 0 L 194.71009969004373 -3.5 L 194.71009969004373 -0.5 L 125.75348734502187 -0.5 Z"/><text text-anchor="middle" pointer-events="none" font-size="8px" fill="#000000" x="109.85504984502187" y="3" transform="rotate(180 109.85504984502187 0)" font-family="sans-serif">contain</text></g><g class="relationship" transform="translate(-22.247234749939988 2.5584092497135607) rotate(206.41503532097528)"><path class="outline" fill="#C990C0" stroke="none" d="M 25 0.5 L 77.84974176939613 0.5 L 77.84974176939613 -0.5 L 25 -0.5 Z M 115.42396051939613 0.5 L 168.27370228879226 0.5 L 168.27370228879226 3.5 L 175.27370228879226 0 L 168.27370228879226 -3.5 L 168.27370228879226 -0.5 L 115.42396051939613 -0.5 Z"/><text text-anchor="middle" pointer-events="none" font-size="8px" fill="#000000" x="96.63685114439613" y="3" transform="rotate(180 96.63685114439613 0)" font-family="sans-serif">islocated</text></g><g class="relationship" transform="translate(-22.247234749939988 2.5584092497135607) rotate(359.7360419611979)"><path class="outline" fill="#4C8EDA" stroke="none" d="M 25 0.5 L 54.30882079325333 0.5 L 54.30882079325333 -0.5 L 25 -0.5 Z M 86.10569579325333 0.5 L 115.41451658650666 0.5 L 115.41451658650666 3.5 L 122.41451658650666 0 L 115.41451658650666 -3.5 L 115.41451658650666 -0.5 L 86.10569579325333 -0.5 Z"/><text text-anchor="middle" pointer-events="none" font-size="8px" fill="#000000" x="70.20725829325333" y="3" font-family="sans-serif">contain</text></g><g class="relationship" transform="translate(-22.247234749939988 2.5584092497135607) rotate(435.5710660940548)"><path class="outline" fill="#4C8EDA" stroke="none" d="M 25 0.5 L 83.5524990929419 0.5 L 83.5524990929419 -0.5 L 25 -0.5 Z M 115.3493740929419 0.5 L 173.9018731858838 0.5 L 173.9018731858838 3.5 L 180.9018731858838 0 L 173.9018731858838 -3.5 L 173.9018731858838 -0.5 L 115.3493740929419 -0.5 Z"/><text text-anchor="middle" pointer-events="none" font-size="8px" fill="#000000" x="99.4509365929419" y="3" font-family="sans-serif">contain</text></g><g class="relationship" transform="translate(-22.247234749939988 2.5584092497135607) rotate(535.7528912629862)"><path class="outline" fill="#8DCC93" stroke="none" d="M 25 0.5 L 53.063876898297835 0.5 L 53.063876898297835 -0.5 L 25 -0.5 Z M 102.19668939829783 0.5 L 130.26056629659567 0.5 L 130.26056629659567 3.5 L 137.26056629659567 0 L 130.26056629659567 -3.5 L 130.26056629659567 -0.5 L 102.19668939829783 -0.5 Z"/><text text-anchor="middle" pointer-events="none" font-size="8px" fill="#000000" x="77.63028314829783" y="3" transform="rotate(180 77.63028314829783 0)" font-family="sans-serif">hasGeotime</text></g><g class="relationship" transform="translate(-46.435558131017466 98.77420303864639) rotate(330.54868904515314)"><path class="outline" fill="#4C8EDA" stroke="none" d="M 25 0.5 L 79.13534282693493 0.5 L 79.13534282693493 -0.5 L 25 -0.5 Z M 110.93221782693493 0.5 L 165.06756065386986 0.5 L 165.06756065386986 3.5 L 172.06756065386986 0 L 165.06756065386986 -3.5 L 165.06756065386986 -0.5 L 110.93221782693493 -0.5 Z"/><text text-anchor="middle" pointer-events="none" font-size="8px" fill="#000000" x="95.03378032693493" y="3" font-family="sans-serif">contain</text></g><g class="relationship" transform="translate(180.70539091244368 319.5950785802599) rotate(217.80014406380837)"><path class="outline" fill="#4C8EDA" stroke="none" d="M 25 0.5 L 76.56153230225658 0.5 L 76.56153230225658 -0.5 L 25 -0.5 Z M 108.35840730225658 0.5 L 159.91993960451316 0.5 L 159.91993960451316 3.5 L 166.91993960451316 0 L 159.91993960451316 -3.5 L 159.91993960451316 -0.5 L 108.35840730225658 -0.5 Z"/><text text-anchor="middle" pointer-events="none" font-size="8px" fill="#000000" x="92.45996980225658" y="3" transform="rotate(180 92.45996980225658 0)" font-family="sans-serif">contain</text></g><g class="relationship" transform="translate(54.13747704974436 -64.73501936928955) rotate(301.51988384633097)"><path class="outline" fill="#C990C0" stroke="none" d="M 25 0.5 L 56.11820941100639 0.5 L 56.11820941100639 -0.5 L 25 -0.5 Z M 93.69242816100639 0.5 L 124.81063757201278 0.5 L 124.81063757201278 3.5 L 131.81063757201278 0 L 124.81063757201278 -3.5 L 124.81063757201278 -0.5 L 93.69242816100639 -0.5 Z"/><text text-anchor="middle" pointer-events="none" font-size="8px" fill="#000000" x="74.90531878600639" y="3" font-family="sans-serif">islocated</text></g><g class="relationship" transform="translate(54.13747704974436 -64.73501936928955) rotate(244.0147021831355)"><path class="outline" fill="#8DCC93" stroke="none" d="M 25 0.5 L 31.945974080490828 0.5 L 31.945974080490828 -0.5 L 25 -0.5 Z M 81.07878658049083 0.5 L 88.02476066098166 0.5 L 88.02476066098166 3.5 L 95.02476066098166 0 L 88.02476066098166 -3.5 L 88.02476066098166 -0.5 L 81.07878658049083 -0.5 Z"/><text text-anchor="middle" pointer-events="none" font-size="8px" fill="#000000" x="56.51238033049083" y="3" transform="rotate(180 56.51238033049083 0)" font-family="sans-serif">hasGeotime</text></g><g class="relationship" transform="translate(242.90303931904958 -160.03350953394016) rotate(199.76714798088278)"><path class="outline" fill="#C990C0" stroke="none" d="M 25 0.5 L 34.44899155012573 0.5 L 34.44899155012573 -0.5 L 25 -0.5 Z M 72.02321030012573 0.5 L 81.47220185025147 0.5 L 81.47220185025147 3.5 L 88.47220185025147 0 L 81.47220185025147 -3.5 L 81.47220185025147 -0.5 L 72.02321030012573 -0.5 Z"/><text text-anchor="middle" pointer-events="none" font-size="8px" fill="#000000" x="53.23610092512573" y="3" transform="rotate(180 53.23610092512573 0)" font-family="sans-serif">islocated</text></g><g class="relationship" transform="translate(242.90303931904958 -160.03350953394016) rotate(264.7755628107443)"><path class="outline" fill="#4C8EDA" stroke="none" d="M 25 0.5 L 60.22959754957891 0.5 L 60.22959754957891 -0.5 L 25 -0.5 Z M 92.02647254957891 0.5 L 127.25607009915782 0.5 L 127.25607009915782 3.5 L 134.25607009915782 0 L 127.25607009915782 -3.5 L 127.25607009915782 -0.5 L 92.02647254957891 -0.5 Z"/><text text-anchor="middle" pointer-events="none" font-size="8px" fill="#000000" x="76.12803504957891" y="3" transform="rotate(180 76.12803504957891 0)" font-family="sans-serif">contain</text></g><g class="relationship" transform="translate(242.90303931904958 -160.03350953394016) rotate(294.6977249659517)"><path class="outline" fill="#4C8EDA" stroke="none" d="M 25 0.5 L 78.53444717999213 0.5 L 78.53444717999213 -0.5 L 25 -0.5 Z M 110.33132217999213 0.5 L 163.86576935998426 0.5 L 163.86576935998426 3.5 L 170.86576935998426 0 L 163.86576935998426 -3.5 L 163.86576935998426 -0.5 L 110.33132217999213 -0.5 Z"/><text text-anchor="middle" pointer-events="none" font-size="8px" fill="#000000" x="94.43288467999213" y="3" font-family="sans-serif">contain</text></g><g class="relationship" transform="translate(242.90303931904958 -160.03350953394016) rotate(317.7751440910349)"><path class="outline" fill="#4C8EDA" stroke="none" d="M 25 0.5 L 40.77768130160383 0.5 L 40.77768130160383 -0.5 L 25 -0.5 Z M 72.57455630160382 0.5 L 88.35223760320766 0.5 L 88.35223760320766 3.5 L 95.35223760320766 0 L 88.35223760320766 -3.5 L 88.35223760320766 -0.5 L 72.57455630160382 -0.5 Z"/><text text-anchor="middle" pointer-events="none" font-size="8px" fill="#000000" x="56.67611880160383" y="3" font-family="sans-serif">contain</text></g><g class="relationship" transform="translate(242.90303931904958 -160.03350953394016) rotate(231.0595508388235)"><path class="outline" fill="#4C8EDA" stroke="none" d="M 25 0.5 L 68.59504729374389 0.5 L 68.59504729374389 -0.5 L 25 -0.5 Z M 100.39192229374389 0.5 L 143.98696958748778 0.5 L 143.98696958748778 3.5 L 150.98696958748778 0 L 143.98696958748778 -3.5 L 143.98696958748778 -0.5 L 100.39192229374389 -0.5 Z"/><text text-anchor="middle" pointer-events="none" font-size="8px" fill="#000000" x="84.49348479374389" y="3" transform="rotate(180 84.49348479374389 0)" font-family="sans-serif">contain</text></g><g class="relationship" transform="translate(242.90303931904958 -160.03350953394016) rotate(413.3636859783628)"><path class="outline" fill="#4C8EDA" stroke="none" d="M 25 0.5 L 31.187472032914926 0.5 L 31.187472032914926 -0.5 L 25 -0.5 Z M 62.984347032914926 0.5 L 69.17181906582985 0.5 L 69.17181906582985 3.5 L 76.17181906582985 0 L 69.17181906582985 -3.5 L 69.17181906582985 -0.5 L 62.984347032914926 -0.5 Z"/><text text-anchor="middle" pointer-events="none" font-size="8px" fill="#000000" x="47.085909532914926" y="3" font-family="sans-serif">contain</text></g><g class="relationship" transform="translate(242.90303931904958 -160.03350953394016) rotate(369.2788345710467)"><path class="outline" fill="#4C8EDA" stroke="none" d="M 25 0.5 L 51.656548921224754 0.5 L 51.656548921224754 -0.5 L 25 -0.5 Z M 83.45342392122475 0.5 L 110.10997284244951 0.5 L 110.10997284244951 3.5 L 117.10997284244951 0 L 110.10997284244951 -3.5 L 110.10997284244951 -0.5 L 83.45342392122475 -0.5 Z"/><text text-anchor="middle" pointer-events="none" font-size="8px" fill="#000000" x="67.55498642122475" y="3" font-family="sans-serif">contain</text></g><g class="relationship" transform="translate(242.90303931904958 -160.03350953394016) rotate(340.83426349164324)"><path class="outline" fill="#8DCC93" stroke="none" d="M 25 0.5 L 70.12977356967885 0.5 L 70.12977356967885 -0.5 L 25 -0.5 Z M 119.26258606967885 0.5 L 164.3923596393577 0.5 L 164.3923596393577 3.5 L 171.3923596393577 0 L 164.3923596393577 -3.5 L 164.3923596393577 -0.5 L 119.26258606967885 -0.5 Z"/><text text-anchor="middle" pointer-events="none" font-size="8px" fill="#000000" x="94.69617981967885" y="3" font-family="sans-serif">hasGeotime</text></g><g class="relationship" transform="translate(180.70539091244368 319.5950785802599) rotate(314.57966862214937)"><path class="outline" fill="#8DCC93" stroke="none" d="M 25 0.5 L 43.138593394820504 0.5 L 43.138593394820504 -0.5 L 25 -0.5 Z M 92.2714058948205 0.5 L 110.40999928964101 0.5 L 110.40999928964101 3.5 L 117.40999928964101 0 L 110.40999928964101 -3.5 L 110.40999928964101 -0.5 L 92.2714058948205 -0.5 Z"/><text text-anchor="middle" pointer-events="none" font-size="8px" fill="#000000" x="67.7049996448205" y="3" font-family="sans-serif">hasGeotime</text></g><g class="relationship" transform="translate(216.06234898488037 -14.270481730227118) rotate(393.13434580704535)"><path class="outline" fill="#C990C0" stroke="none" d="M 25 0.5 L 63.913077624517825 0.5 L 63.913077624517825 -0.5 L 25 -0.5 Z M 101.48729637451783 0.5 L 140.40037399903565 0.5 L 140.40037399903565 3.5 L 147.40037399903565 0 L 140.40037399903565 -3.5 L 140.40037399903565 -0.5 L 101.48729637451783 -0.5 Z"/><text text-anchor="middle" pointer-events="none" font-size="8px" fill="#000000" x="82.70018699951783" y="3" font-family="sans-serif">islocated</text></g><g class="relationship" transform="translate(216.06234898488037 -14.270481730227118) rotate(359.0889131166723)"><path class="outline" fill="#4C8EDA" stroke="none" d="M 25 0.5 L 63.63518727218124 0.5 L 63.63518727218124 -0.5 L 25 -0.5 Z M 95.43206227218124 0.5 L 134.06724954436248 0.5 L 134.06724954436248 3.5 L 141.06724954436248 0 L 134.06724954436248 -3.5 L 134.06724954436248 -0.5 L 95.43206227218124 -0.5 Z"/><text text-anchor="middle" pointer-events="none" font-size="8px" fill="#000000" x="79.53362477218124" y="3" font-family="sans-serif">contain</text></g><g class="relationship" transform="translate(216.06234898488037 -14.270481730227118) rotate(428.27033027198627)"><path class="outline" fill="#8DCC93" stroke="none" d="M 25 0.5 L 44.23158607136085 0.5 L 44.23158607136085 -0.5 L 25 -0.5 Z M 93.36439857136085 0.5 L 112.5959846427217 0.5 L 112.5959846427217 3.5 L 119.5959846427217 0 L 112.5959846427217 -3.5 L 112.5959846427217 -0.5 L 93.36439857136085 -0.5 Z"/><text text-anchor="middle" pointer-events="none" font-size="8px" fill="#000000" x="68.79799232136085" y="3" font-family="sans-serif">hasGeotime</text></g><g class="relationship" transform="translate(-46.435558131017466 98.77420303864639) rotate(466.3857597537194)"><path class="outline" fill="#C990C0" stroke="none" d="M 25 0.5 L 58.95855953246105 0.5 L 58.95855953246105 -0.5 L 25 -0.5 Z M 96.53277828246105 0.5 L 130.4913378149221 0.5 L 130.4913378149221 3.5 L 137.4913378149221 0 L 130.4913378149221 -3.5 L 130.4913378149221 -0.5 L 96.53277828246105 -0.5 Z"/><text text-anchor="middle" pointer-events="none" font-size="8px" fill="#000000" x="77.74566890746105" y="3" transform="rotate(180 77.74566890746105 0)" font-family="sans-serif">islocated</text></g><g class="relationship" transform="translate(-46.435558131017466 98.77420303864639) rotate(435.46174742836894)"><path class="outline" fill="#C990C0" stroke="none" d="M 25 0.5 L 80.87588559718904 0.5 L 80.87588559718904 -0.5 L 25 -0.5 Z M 118.45010434718904 0.5 L 174.32598994437808 0.5 L 174.32598994437808 3.5 L 181.32598994437808 0 L 174.32598994437808 -3.5 L 174.32598994437808 -0.5 L 118.45010434718904 -0.5 Z"/><text text-anchor="middle" pointer-events="none" font-size="8px" fill="#000000" x="99.66299497218904" y="3" font-family="sans-serif">islocated</text></g><g class="relationship" transform="translate(-46.435558131017466 98.77420303864639) rotate(387.19221535726325)"><path class="outline" fill="#4C8EDA" stroke="none" d="M 25 0.5 L 78.36139334197448 0.5 L 78.36139334197448 -0.5 L 25 -0.5 Z M 110.15826834197448 0.5 L 163.51966168394895 0.5 L 163.51966168394895 3.5 L 170.51966168394895 0 L 163.51966168394895 -3.5 L 163.51966168394895 -0.5 L 110.15826834197448 -0.5 Z"/><text text-anchor="middle" pointer-events="none" font-size="8px" fill="#000000" x="94.25983084197448" y="3" font-family="sans-serif">contain</text></g><g class="relationship" transform="translate(-46.435558131017466 98.77420303864639) rotate(352.4637009318735)"><path class="outline" fill="#4C8EDA" stroke="none" d="M 25 0.5 L 67.33027565288079 0.5 L 67.33027565288079 -0.5 L 25 -0.5 Z M 99.12715065288079 0.5 L 141.45742630576157 0.5 L 141.45742630576157 3.5 L 148.45742630576157 0 L 141.45742630576157 -3.5 L 141.45742630576157 -0.5 L 99.12715065288079 -0.5 Z"/><text text-anchor="middle" pointer-events="none" font-size="8px" fill="#000000" x="83.22871315288079" y="3" font-family="sans-serif">contain</text></g><g class="relationship" transform="translate(-46.435558131017466 98.77420303864639) rotate(535.8002119595759)"><path class="outline" fill="#4C8EDA" stroke="none" d="M 25 0.5 L 62.64374296710544 0.5 L 62.64374296710544 -0.5 L 25 -0.5 Z M 94.44061796710544 0.5 L 132.08436093421088 0.5 L 132.08436093421088 3.5 L 139.08436093421088 0 L 132.08436093421088 -3.5 L 132.08436093421088 -0.5 L 94.44061796710544 -0.5 Z"/><text text-anchor="middle" pointer-events="none" font-size="8px" fill="#000000" x="78.54218046710544" y="3" transform="rotate(180 78.54218046710544 0)" font-family="sans-serif">contain</text></g><g class="relationship" transform="translate(-46.435558131017466 98.77420303864639) rotate(501.12097446818586)"><path class="outline" fill="#8DCC93" stroke="none" d="M 25 0.5 L 56.42254486508142 0.5 L 56.42254486508142 -0.5 L 25 -0.5 Z M 105.55535736508142 0.5 L 136.97790223016284 0.5 L 136.97790223016284 3.5 L 143.97790223016284 0 L 136.97790223016284 -3.5 L 136.97790223016284 -0.5 L 105.55535736508142 -0.5 Z"/><text text-anchor="middle" pointer-events="none" font-size="8px" fill="#000000" x="80.98895111508142" y="3" transform="rotate(180 80.98895111508142 0)" font-family="sans-serif">hasGeotime</text></g><g class="relationship" transform="translate(180.70539091244368 319.5950785802599) rotate(247.95807800569975)"><path class="outline" fill="#4C8EDA" stroke="none" d="M 25 0.5 L 51.52157642044375 0.5 L 51.52157642044375 -0.5 L 25 -0.5 Z M 83.31845142044375 0.5 L 109.8400278408875 0.5 L 109.8400278408875 3.5 L 116.8400278408875 0 L 109.8400278408875 -3.5 L 109.8400278408875 -0.5 L 83.31845142044375 -0.5 Z"/><text text-anchor="middle" pointer-events="none" font-size="8px" fill="#000000" x="67.42001392044375" y="3" transform="rotate(180 67.42001392044375 0)" font-family="sans-serif">contain</text></g><g class="relationship" transform="translate(180.70539091244368 319.5950785802599) rotate(186.8619920910424)"><path class="outline" fill="#C990C0" stroke="none" d="M 25 0.5 L 66.0192934376957 0.5 L 66.0192934376957 -0.5 L 25 -0.5 Z M 103.5935121876957 0.5 L 144.6128056253914 0.5 L 144.6128056253914 3.5 L 151.6128056253914 0 L 144.6128056253914 -3.5 L 144.6128056253914 -0.5 L 103.5935121876957 -0.5 Z"/><text text-anchor="middle" pointer-events="none" font-size="8px" fill="#000000" x="84.8064028126957" y="3" transform="rotate(180 84.8064028126957 0)" font-family="sans-serif">islocated</text></g><g class="relationship" transform="translate(216.06234898488037 -14.270481730227118) rotate(473.6390184129311)"><path class="outline" fill="#4C8EDA" stroke="none" d="M 25 0.5 L 91.06708196712027 0.5 L 91.06708196712027 -0.5 L 25 -0.5 Z M 122.86395696712027 0.5 L 188.93103893424055 0.5 L 188.93103893424055 3.5 L 195.93103893424055 0 L 188.93103893424055 -3.5 L 188.93103893424055 -0.5 L 122.86395696712027 -0.5 Z"/><text text-anchor="middle" pointer-events="none" font-size="8px" fill="#000000" x="106.96551946712027" y="3" transform="rotate(180 106.96551946712027 0)" font-family="sans-serif">contain</text></g></g><g class="layer nodes"><g class="node" aria-label="graph-node21738" transform="translate(-22.247234749939988,2.5584092497135607)"><circle class="outline" cx="0" cy="0" r="25" fill="#F79767" stroke="#f36924" stroke-width="2px"/><text class="caption" text-anchor="middle" pointer-events="none" x="0" y="5" font-size="10px" fill="#FFFFFF" font-family="sans-serif"> Shelu(O…</text></g><g class="node" aria-label="graph-node22197" transform="translate(-152.79178330824422,-241.80487817113965)"><circle class="outline" cx="0" cy="0" r="25" fill="#F79767" stroke="#f36924" stroke-width="2px"/><text class="caption" text-anchor="middle" pointer-events="none" x="0" y="5" font-size="10px" fill="#FFFFFF" font-family="sans-serif"> Jinshajia…</text></g><g class="node" aria-label="graph-node18684" transform="translate(-150.6997762349555,-342.27286142130384)"><circle class="outline" cx="0" cy="0" r="25" fill="#C990C0" stroke="#b261a5" stroke-width="2px"/><text class="caption" text-anchor="middle" pointer-events="none" x="0" y="5" font-size="10px" fill="#FFFFFF" font-family="sans-serif"> yunnan</text></g><g class="node" aria-label="graph-node18686" transform="translate(-201.61137118091887,-86.53739531385153)"><circle class="outline" cx="0" cy="0" r="25" fill="#C990C0" stroke="#b261a5" stroke-width="2px"/><text class="caption" text-anchor="middle" pointer-events="none" x="0" y="5" font-size="10px" fill="#FFFFFF" font-family="sans-serif"> tibet</text></g><g class="node" aria-label="graph-node18949" transform="translate(-17.96684257714358,-290.20205270223767)"><circle class="outline" cx="0" cy="0" r="25" fill="#4C8EDA" stroke="#2870c2" stroke-width="2px"/><text class="caption" text-anchor="middle" pointer-events="none" x="0" y="5" font-size="10px" fill="#FFFFFF" font-family="sans-serif"> Keratop…</text></g><g class="node" aria-label="graph-node20294" transform="translate(-100.82571884279199,-121.31482376463816)"><circle class="outline" cx="0" cy="0" r="25" fill="#4C8EDA" stroke="#2870c2" stroke-width="2px"/><text class="caption" text-anchor="middle" pointer-events="none" x="0" y="5" font-size="10px" fill="#FFFFFF" font-family="sans-serif"> Melange</text></g><g class="node" aria-label="graph-node22198" transform="translate(-267.47334839541804,-228.91570417973156)"><circle class="outline" cx="0" cy="0" r="25" fill="#8DCC93" stroke="#5db665" stroke-width="2px"/><text class="caption" text-anchor="middle" pointer-events="none" x="0" y="5" font-size="10px" fill="#2A2C34" font-family="sans-serif"> P-T1</text></g><g class="node" aria-label="graph-node20333" transform="translate(125.16571748626657,1.8792822812217764)"><circle class="outline" cx="0" cy="0" r="25" fill="#4C8EDA" stroke="#2870c2" stroke-width="2px"/><text class="caption" text-anchor="middle" pointer-events="none" x="0" y="5" font-size="10px" fill="#FFFFFF" font-family="sans-serif"> Schist</text></g><g class="node" aria-label="graph-node20910" transform="translate(29.059184424711553,201.9656125622587)"><circle class="outline" cx="0" cy="0" r="25" fill="#4C8EDA" stroke="#2870c2" stroke-width="2px"/><text class="caption" text-anchor="middle" pointer-events="none" x="0" y="5" font-size="10px" fill="#FFFFFF" font-family="sans-serif"> Marble</text></g><g class="node" aria-label="graph-node21028" transform="translate(-184.06222111802524,14.57512933417541)"><circle class="outline" cx="0" cy="0" r="25" fill="#8DCC93" stroke="#5db665" stroke-width="2px"/><text class="caption" text-anchor="middle" pointer-events="none" x="0" y="5" font-size="10px" fill="#2A2C34" font-family="sans-serif"> Pt1-2</text></g><g class="node" aria-label="graph-node22189" transform="translate(242.90303931904958,-160.03350953394016)"><circle class="outline" cx="0" cy="0" r="25" fill="#F79767" stroke="#f36924" stroke-width="2px"/><text class="caption" text-anchor="middle" pointer-events="none" x="0" y="-5" font-size="10px" fill="#FFFFFF" font-family="sans-serif"> Kaer</text><text class="caption" text-anchor="middle" pointer-events="none" x="0" y="5" font-size="10px" fill="#FFFFFF" font-family="sans-serif"> Ophiolite</text><text class="caption" text-anchor="middle" pointer-events="none" x="0" y="15" font-size="10px" fill="#FFFFFF" font-family="sans-serif"> Fm</text></g><g class="node" aria-label="graph-node22194" transform="translate(54.13747704974436,-64.73501936928955)"><circle class="outline" cx="0" cy="0" r="25" fill="#F79767" stroke="#f36924" stroke-width="2px"/><text class="caption" text-anchor="middle" pointer-events="none" x="0" y="-5" font-size="10px" fill="#FFFFFF" font-family="sans-serif"> Litang</text><text class="caption" text-anchor="middle" pointer-events="none" x="0" y="5" font-size="10px" fill="#FFFFFF" font-family="sans-serif"> Ophiolite</text><text class="caption" text-anchor="middle" pointer-events="none" x="0" y="15" font-size="10px" fill="#FFFFFF" font-family="sans-serif"> Gr</text></g><g class="node" aria-label="graph-node18680" transform="translate(136.117205295238,-198.4096250823275)"><circle class="outline" cx="0" cy="0" r="25" fill="#C990C0" stroke="#b261a5" stroke-width="2px"/><text class="caption" text-anchor="middle" pointer-events="none" x="0" y="5" font-size="10px" fill="#FFFFFF" font-family="sans-serif"> sichuan</text></g><g class="node" aria-label="graph-node22195" transform="translate(1.549768346586827,-172.62605729681056)"><circle class="outline" cx="0" cy="0" r="25" fill="#8DCC93" stroke="#5db665" stroke-width="2px"/><text class="caption" text-anchor="middle" pointer-events="none" x="0" y="5" font-size="10px" fill="#2A2C34" font-family="sans-serif"> P-T</text></g><g class="node" aria-label="graph-node18704" transform="translate(228.40160742478074,-318.6279745585549)"><circle class="outline" cx="0" cy="0" r="25" fill="#4C8EDA" stroke="#2870c2" stroke-width="2px"/><text class="caption" text-anchor="middle" pointer-events="none" x="0" y="5" font-size="10px" fill="#FFFFFF" font-family="sans-serif"> Dunite</text></g><g class="node" aria-label="graph-node18807" transform="translate(324.7418294961419,-337.98241239464454)"><circle class="outline" cx="0" cy="0" r="25" fill="#4C8EDA" stroke="#2870c2" stroke-width="2px"/><text class="caption" text-anchor="middle" pointer-events="none" x="0" y="5" font-size="10px" fill="#FFFFFF" font-family="sans-serif"> Gabbro</text></g><g class="node" aria-label="graph-node18947" transform="translate(332.0254505833206,-240.91525596996297)"><circle class="outline" cx="0" cy="0" r="25" fill="#4C8EDA" stroke="#2870c2" stroke-width="2px"/><text class="caption" text-anchor="middle" pointer-events="none" x="0" y="5" font-size="10px" fill="#FFFFFF" font-family="sans-serif"> Spilite</text></g><g class="node" aria-label="graph-node20057" transform="translate(132.29306108296996,-296.91610952094123)"><circle class="outline" cx="0" cy="0" r="25" fill="#4C8EDA" stroke="#2870c2" stroke-width="2px"/><text class="caption" text-anchor="middle" pointer-events="none" x="0" y="5" font-size="10px" fill="#FFFFFF" font-family="sans-serif"> Brecciat…</text></g><g class="node" aria-label="graph-node20479" transform="translate(303.275661134326,-78.84925300449586)"><circle class="outline" cx="0" cy="0" r="25" fill="#4C8EDA" stroke="#2870c2" stroke-width="2px"/><text class="caption" text-anchor="middle" pointer-events="none" x="0" y="5" font-size="10px" fill="#FFFFFF" font-family="sans-serif"> Slate</text></g><g class="node" aria-label="graph-node20492" transform="translate(383.1535524166597,-137.1198027814561)"><circle class="outline" cx="0" cy="0" r="25" fill="#4C8EDA" stroke="#2870c2" stroke-width="2px"/><text class="caption" text-anchor="middle" pointer-events="none" x="0" y="0" font-size="10px" fill="#FFFFFF" font-family="sans-serif"> Siliceous</text><text class="caption" text-anchor="middle" pointer-events="none" x="0" y="10" font-size="10px" fill="#FFFFFF" font-family="sans-serif"> slate</text></g><g class="node" aria-label="graph-node22186" transform="translate(428.4099335501248,-224.50948271353232)"><circle class="outline" cx="0" cy="0" r="25" fill="#8DCC93" stroke="#5db665" stroke-width="2px"/><text class="caption" text-anchor="middle" pointer-events="none" x="0" y="5" font-size="10px" fill="#2A2C34" font-family="sans-serif"> P2-T1</text></g><g class="node" aria-label="graph-node22449" transform="translate(280.6630187899326,218.15997357818975)"><circle class="outline" cx="0" cy="0" r="25" fill="#8DCC93" stroke="#5db665" stroke-width="2px"/><text class="caption" text-anchor="middle" pointer-events="none" x="0" y="5" font-size="10px" fill="#2A2C34" font-family="sans-serif"> C-T</text></g><g class="node" aria-label="graph-node18644" transform="translate(360.428906206609,79.96425767596385)"><circle class="outline" cx="0" cy="0" r="25" fill="#C990C0" stroke="#b261a5" stroke-width="2px"/><text class="caption" text-anchor="middle" pointer-events="none" x="0" y="0" font-size="10px" fill="#FFFFFF" font-family="sans-serif"> Inner</text><text class="caption" text-anchor="middle" pointer-events="none" x="0" y="10" font-size="10px" fill="#FFFFFF" font-family="sans-serif"> Mong…</text></g><g class="node" aria-label="graph-node20126" transform="translate(382.10860337016203,-16.91108314806562)"><circle class="outline" cx="0" cy="0" r="25" fill="#4C8EDA" stroke="#2870c2" stroke-width="2px"/><text class="caption" text-anchor="middle" pointer-events="none" x="0" y="5" font-size="10px" fill="#FFFFFF" font-family="sans-serif"> Chert</text></g><g class="node" aria-label="graph-node22832" transform="translate(269.59580870609653,120.05065385563344)"><circle class="outline" cx="0" cy="0" r="25" fill="#8DCC93" stroke="#5db665" stroke-width="2px"/><text class="caption" text-anchor="middle" pointer-events="none" x="0" y="5" font-size="10px" fill="#2A2C34" font-family="sans-serif"> D1-3</text></g><g class="node" aria-label="graph-node22448" transform="translate(180.70539091244368,319.5950785802599)"><circle class="outline" cx="0" cy="0" r="25" fill="#F79767" stroke="#f36924" stroke-width="2px"/><text class="caption" text-anchor="middle" pointer-events="none" x="0" y="5" font-size="10px" fill="#FFFFFF" font-family="sans-serif"> Tongtian…</text></g><g class="node" aria-label="graph-node22833" transform="translate(216.06234898488037,-14.270481730227118)"><circle class="outline" cx="0" cy="0" r="25" fill="#F79767" stroke="#f36924" stroke-width="2px"/><text class="caption" text-anchor="middle" pointer-events="none" x="0" y="5" font-size="10px" fill="#FFFFFF" font-family="sans-serif"> Hegens…</text></g><g class="node" aria-label="graph-node21288" transform="translate(-46.435558131017466,98.77420303864639)"><circle class="outline" cx="0" cy="0" r="25" fill="#F79767" stroke="#f36924" stroke-width="2px"/><text class="caption" text-anchor="middle" pointer-events="none" x="0" y="5" font-size="10px" fill="#FFFFFF" font-family="sans-serif"> Beiqilian…</text></g><g class="node" aria-label="graph-node18690" transform="translate(-92.27485541699306,254.66581182247762)"><circle class="outline" cx="0" cy="0" r="25" fill="#C990C0" stroke="#b261a5" stroke-width="2px"/><text class="caption" text-anchor="middle" pointer-events="none" x="0" y="5" font-size="10px" fill="#FFFFFF" font-family="sans-serif"> gansu</text></g><g class="node" aria-label="graph-node18692" transform="translate(5.3576949848196,298.493688963797)"><circle class="outline" cx="0" cy="0" r="25" fill="#C990C0" stroke="#b261a5" stroke-width="2px"/><text class="caption" text-anchor="middle" pointer-events="none" x="0" y="5" font-size="10px" fill="#FFFFFF" font-family="sans-serif"> qinghai</text></g><g class="node" aria-label="graph-node19619" transform="translate(127.47497137928316,188.12220710394556)"><circle class="outline" cx="0" cy="0" r="25" fill="#4C8EDA" stroke="#2870c2" stroke-width="2px"/><text class="caption" text-anchor="middle" pointer-events="none" x="0" y="0" font-size="10px" fill="#FFFFFF" font-family="sans-serif"> Clastic</text><text class="caption" text-anchor="middle" pointer-events="none" x="0" y="10" font-size="10px" fill="#FFFFFF" font-family="sans-serif"> rocks</text></g><g class="node" aria-label="graph-node19923" transform="translate(125.52353756213225,76.02451844714295)"><circle class="outline" cx="0" cy="0" r="25" fill="#4C8EDA" stroke="#2870c2" stroke-width="2px"/><text class="caption" text-anchor="middle" pointer-events="none" x="0" y="5" font-size="10px" fill="#FFFFFF" font-family="sans-serif"> Carbona…</text></g><g class="node" aria-label="graph-node20685" transform="translate(-210.07931123220706,110.79084042792006)"><circle class="outline" cx="0" cy="0" r="25" fill="#4C8EDA" stroke="#2870c2" stroke-width="2px"/><text class="caption" text-anchor="middle" pointer-events="none" x="0" y="5" font-size="10px" fill="#FFFFFF" font-family="sans-serif"> Glancop…</text></g><g class="node" aria-label="graph-node21289" transform="translate(-177.98028873193962,204.8379352624244)"><circle class="outline" cx="0" cy="0" r="25" fill="#8DCC93" stroke="#5db665" stroke-width="2px"/><text class="caption" text-anchor="middle" pointer-events="none" x="0" y="5" font-size="10px" fill="#2A2C34" font-family="sans-serif"> Z-O2</text></g></g></svg>