<svg xmlns="http://www.w3.org/2000/svg" width="503.09283447265625" height="564.0833129882812" viewBox="-294.5901794433594 -371.49139404296875 503.09283447265625 564.0833129882812"><title>Neo4j Graph Visualization</title><desc>Created using Neo4j (http://www.neo4j.com/)</desc><g class="layer relationships"><g class="relationship" transform="translate(-93.99168192679768 -146.59281001869167) rotate(232.8478059747256)"><path class="outline" fill="#4C8EDA" stroke="none" d="M 25 0.5 L 70.47003549029209 0.5 L 70.47003549029209 -0.5 L 25 -0.5 Z M 102.26691049029209 0.5 L 147.73694598058418 0.5 L 147.73694598058418 3.5 L 154.73694598058418 0 L 147.73694598058418 -3.5 L 147.73694598058418 -0.5 L 102.26691049029209 -0.5 Z"/><text text-anchor="middle" pointer-events="none" font-size="8px" fill="#000000" x="86.36847299029209" y="3" transform="rotate(180 86.36847299029209 0)" font-family="sans-serif">contain</text></g><g class="relationship" transform="translate(-93.99168192679768 -146.59281001869167) rotate(292.6043536244051)"><path class="outline" fill="#4C8EDA" stroke="none" d="M 25 0.5 L 63.006765422144 0.5 L 63.006765422144 -0.5 L 25 -0.5 Z M 94.803640422144 0.5 L 132.810405844288 0.5 L 132.810405844288 3.5 L 139.810405844288 0 L 132.810405844288 -3.5 L 132.810405844288 -0.5 L 94.803640422144 -0.5 Z"/><text text-anchor="middle" pointer-events="none" font-size="8px" fill="#000000" x="78.905202922144" y="3" font-family="sans-serif">contain</text></g><g class="relationship" transform="translate(-93.99168192679768 -146.59281001869167) rotate(432.53089299756573)"><path class="outline" fill="#4C8EDA" stroke="none" d="M 25 0.5 L 135.0982074118311 0.5 L 135.0982074118311 -0.5 L 25 -0.5 Z M 166.8950824118311 0.5 L 276.9932898236622 0.5 L 276.9932898236622 3.5 L 283.9932898236622 0 L 276.9932898236622 -3.5 L 276.9932898236622 -0.5 L 166.8950824118311 -0.5 Z"/><text text-anchor="middle" pointer-events="none" font-size="8px" fill="#000000" x="150.9966449118311" y="3" font-family="sans-serif">contain</text></g><g class="relationship" transform="translate(-93.99168192679768 -146.59281001869167) rotate(348.79010576890664)"><path class="outline" fill="#4C8EDA" stroke="none" d="M 25 0.5 L 78.91700319185239 0.5 L 78.91700319185239 -0.5 L 25 -0.5 Z M 110.71387819185239 0.5 L 164.63088138370478 0.5 L 164.63088138370478 3.5 L 171.63088138370478 0 L 164.63088138370478 -3.5 L 164.63088138370478 -0.5 L 110.71387819185239 -0.5 Z"/><text text-anchor="middle" pointer-events="none" font-size="8px" fill="#000000" x="94.81544069185239" y="3" font-family="sans-serif">contain</text></g><g class="relationship" transform="translate(-93.99168192679768 -146.59281001869167) rotate(328.6919809054972)"><path class="outline" fill="#4C8EDA" stroke="none" d="M 25 0.5 L 37.039204935780084 0.5 L 37.039204935780084 -0.5 L 25 -0.5 Z M 68.83607993578008 0.5 L 80.87528487156017 0.5 L 80.87528487156017 3.5 L 87.87528487156017 0 L 80.87528487156017 -3.5 L 80.87528487156017 -0.5 L 68.83607993578008 -0.5 Z"/><text text-anchor="middle" pointer-events="none" font-size="8px" fill="#000000" x="52.937642435780084" y="3" font-family="sans-serif">contain</text></g><g class="relationship" transform="translate(-93.99168192679768 -146.59281001869167) rotate(320.46913157474665)"><path class="outline" fill="#4C8EDA" stroke="none" d="M 25 0.5 L 83.7775454401066 0.5 L 83.7775454401066 -0.5 L 25 -0.5 Z M 115.5744204401066 0.5 L 174.3519658802132 0.5 L 174.3519658802132 3.5 L 181.3519658802132 0 L 174.3519658802132 -3.5 L 174.3519658802132 -0.5 L 115.5744204401066 -0.5 Z"/><text text-anchor="middle" pointer-events="none" font-size="8px" fill="#000000" x="99.6759829401066" y="3" font-family="sans-serif">contain</text></g><g class="relationship" transform="translate(-93.99168192679768 -146.59281001869167) rotate(402.42334223190596)"><path class="outline" fill="#4C8EDA" stroke="none" d="M 25 0.5 L 77.97988856951625 0.5 L 77.97988856951625 -0.5 L 25 -0.5 Z M 109.77676356951625 0.5 L 162.7566521390325 0.5 L 162.7566521390325 3.5 L 169.7566521390325 0 L 162.7566521390325 -3.5 L 162.7566521390325 -0.5 L 109.77676356951625 -0.5 Z"/><text text-anchor="middle" pointer-events="none" font-size="8px" fill="#000000" x="93.87832606951625" y="3" font-family="sans-serif">contain</text></g><g class="relationship" transform="translate(-93.99168192679768 -146.59281001869167) rotate(262.70311869431566)"><path class="outline" fill="#4C8EDA" stroke="none" d="M 25 0.5 L 79.3505829967989 0.5 L 79.3505829967989 -0.5 L 25 -0.5 Z M 111.1474579967989 0.5 L 165.4980409935978 0.5 L 165.4980409935978 3.5 L 172.4980409935978 0 L 165.4980409935978 -3.5 L 165.4980409935978 -0.5 L 111.1474579967989 -0.5 Z"/><text text-anchor="middle" pointer-events="none" font-size="8px" fill="#000000" x="95.2490204967989" y="3" transform="rotate(180 95.2490204967989 0)" font-family="sans-serif">contain</text></g><g class="relationship" transform="translate(-93.99168192679768 -146.59281001869167) rotate(462.4773800564952)"><path class="outline" fill="#4C8EDA" stroke="none" d="M 25 0.5 L 62.20229211504994 0.5 L 62.20229211504994 -0.5 L 25 -0.5 Z M 93.99916711504994 0.5 L 131.20145923009989 0.5 L 131.20145923009989 3.5 L 138.20145923009989 0 L 131.20145923009989 -3.5 L 131.20145923009989 -0.5 L 93.99916711504994 -0.5 Z"/><text text-anchor="middle" pointer-events="none" font-size="8px" fill="#000000" x="78.10072961504994" y="3" transform="rotate(180 78.10072961504994 0)" font-family="sans-serif">contain</text></g><g class="relationship" transform="translate(-93.99168192679768 -146.59281001869167) rotate(375.0551832590776)"><path class="outline" fill="#4C8EDA" stroke="none" d="M 25 0.5 L 47.01088010696611 0.5 L 47.01088010696611 -0.5 L 25 -0.5 Z M 78.80775510696611 0.5 L 100.81863521393223 0.5 L 100.81863521393223 3.5 L 107.81863521393223 0 L 100.81863521393223 -3.5 L 100.81863521393223 -0.5 L 78.80775510696611 -0.5 Z"/><text text-anchor="middle" pointer-events="none" font-size="8px" fill="#000000" x="62.90931760696611" y="3" font-family="sans-serif">contain</text></g><g class="relationship" transform="translate(-93.99168192679768 -146.59281001869167) rotate(426.1334793616566)"><path class="outline" fill="#4C8EDA" stroke="none" d="M 25 0.5 L 38.0451106971774 0.5 L 38.0451106971774 -0.5 L 25 -0.5 Z M 69.84198569717739 0.5 L 82.8870963943548 0.5 L 82.8870963943548 3.5 L 89.8870963943548 0 L 82.8870963943548 -3.5 L 82.8870963943548 -0.5 L 69.84198569717739 -0.5 Z"/><text text-anchor="middle" pointer-events="none" font-size="8px" fill="#000000" x="53.9435481971774" y="3" font-family="sans-serif">contain</text></g><g class="relationship" transform="translate(-93.99168192679768 -146.59281001869167) rotate(413.95856580065293)"><path class="outline" fill="#4C8EDA" stroke="none" d="M 25 0.5 L 121.2400047061831 0.5 L 121.2400047061831 -0.5 L 25 -0.5 Z M 153.0368797061831 0.5 L 249.2768844123662 0.5 L 249.2768844123662 3.5 L 256.2768844123662 0 L 249.2768844123662 -3.5 L 249.2768844123662 -0.5 L 153.0368797061831 -0.5 Z"/><text text-anchor="middle" pointer-events="none" font-size="8px" fill="#000000" x="137.1384422061831" y="3" font-family="sans-serif">contain</text></g><g class="relationship" transform="translate(-93.99168192679768 -146.59281001869167) rotate(258.26143585233314)"><path class="outline" fill="#4C8EDA" stroke="none" d="M 25 0.5 L 31.657169719706857 0.5 L 31.657169719706857 -0.5 L 25 -0.5 Z M 63.45404471970686 0.5 L 70.11121443941371 0.5 L 70.11121443941371 3.5 L 77.11121443941371 0 L 70.11121443941371 -3.5 L 70.11121443941371 -0.5 L 63.45404471970686 -0.5 Z"/><text text-anchor="middle" pointer-events="none" font-size="8px" fill="#000000" x="47.55560721970686" y="3" transform="rotate(180 47.55560721970686 0)" font-family="sans-serif">contain</text></g><g class="relationship" transform="translate(-93.99168192679768 -146.59281001869167) rotate(429.58243399280747)"><path class="outline" fill="#4C8EDA" stroke="none" d="M 25 0.5 L 86.638456082061 0.5 L 86.638456082061 -0.5 L 25 -0.5 Z M 118.435331082061 0.5 L 180.073787164122 0.5 L 180.073787164122 3.5 L 187.073787164122 0 L 180.073787164122 -3.5 L 180.073787164122 -0.5 L 118.435331082061 -0.5 Z"/><text text-anchor="middle" pointer-events="none" font-size="8px" fill="#000000" x="102.536893582061" y="3" font-family="sans-serif">contain</text></g><g class="relationship" transform="translate(-93.99168192679768 -146.59281001869167) rotate(201.7692166454953)"><path class="outline" fill="#4C8EDA" stroke="none" d="M 25 0.5 L 72.98943791034316 0.5 L 72.98943791034316 -0.5 L 25 -0.5 Z M 104.78631291034316 0.5 L 152.7757508206863 0.5 L 152.7757508206863 3.5 L 159.7757508206863 0 L 152.7757508206863 -3.5 L 152.7757508206863 -0.5 L 104.78631291034316 -0.5 Z"/><text text-anchor="middle" pointer-events="none" font-size="8px" fill="#000000" x="88.88787541034316" y="3" transform="rotate(180 88.88787541034316 0)" font-family="sans-serif">contain</text></g><g class="relationship" transform="translate(-195.6661883395079 86.54986113522571) rotate(348.92211731898806)"><path class="outline" fill="#4C8EDA" stroke="none" d="M 25 0.5 L 70.09838391162315 0.5 L 70.09838391162315 -0.5 L 25 -0.5 Z M 101.89525891162315 0.5 L 146.9936428232463 0.5 L 146.9936428232463 3.5 L 153.9936428232463 0 L 146.9936428232463 -3.5 L 146.9936428232463 -0.5 L 101.89525891162315 -0.5 Z"/><text text-anchor="middle" pointer-events="none" font-size="8px" fill="#000000" x="85.99682141162315" y="3" font-family="sans-serif">contain</text></g><g class="relationship" transform="translate(-195.6661883395079 86.54986113522571) rotate(358.77682562031714)"><path class="outline" fill="#4C8EDA" stroke="none" d="M 25 0.5 L 114.2167237597665 0.5 L 114.2167237597665 -0.5 L 25 -0.5 Z M 146.0135987597665 0.5 L 235.230322519533 0.5 L 235.230322519533 3.5 L 242.230322519533 0 L 235.230322519533 -3.5 L 235.230322519533 -0.5 L 146.0135987597665 -0.5 Z"/><text text-anchor="middle" pointer-events="none" font-size="8px" fill="#000000" x="130.1151612597665" y="3" font-family="sans-serif">contain</text></g><g class="relationship" transform="translate(-195.6661883395079 86.54986113522571) rotate(319.15739456780375)"><path class="outline" fill="#4C8EDA" stroke="none" d="M 25 0.5 L 78.52417265344974 0.5 L 78.52417265344974 -0.5 L 25 -0.5 Z M 110.32104765344974 0.5 L 163.84522030689948 0.5 L 163.84522030689948 3.5 L 170.84522030689948 0 L 163.84522030689948 -3.5 L 163.84522030689948 -0.5 L 110.32104765344974 -0.5 Z"/><text text-anchor="middle" pointer-events="none" font-size="8px" fill="#000000" x="94.42261015344974" y="3" font-family="sans-serif">contain</text></g><g class="relationship" transform="translate(-195.6661883395079 86.54986113522571) rotate(311.98632329692566)"><path class="outline" fill="#4C8EDA" stroke="none" d="M 25 0.5 L 30.241920131809444 0.5 L 30.241920131809444 -0.5 L 25 -0.5 Z M 62.038795131809444 0.5 L 67.28071526361889 0.5 L 67.28071526361889 3.5 L 74.28071526361889 0 L 67.28071526361889 -3.5 L 67.28071526361889 -0.5 L 62.038795131809444 -0.5 Z"/><text text-anchor="middle" pointer-events="none" font-size="8px" fill="#000000" x="46.140357631809444" y="3" font-family="sans-serif">contain</text></g><g class="relationship" transform="translate(-195.6661883395079 86.54986113522571) rotate(337.4811523578617)"><path class="outline" fill="#4C8EDA" stroke="none" d="M 25 0.5 L 113.45088695148436 0.5 L 113.45088695148436 -0.5 L 25 -0.5 Z M 145.24776195148436 0.5 L 233.69864890296873 0.5 L 233.69864890296873 3.5 L 240.69864890296873 0 L 233.69864890296873 -3.5 L 233.69864890296873 -0.5 L 145.24776195148436 -0.5 Z"/><text text-anchor="middle" pointer-events="none" font-size="8px" fill="#000000" x="129.34932445148436" y="3" font-family="sans-serif">contain</text></g><g class="relationship" transform="translate(-195.6661883395079 86.54986113522571) rotate(377.5791574552052)"><path class="outline" fill="#4C8EDA" stroke="none" d="M 25 0.5 L 82.57971824299251 0.5 L 82.57971824299251 -0.5 L 25 -0.5 Z M 114.37659324299251 0.5 L 171.95631148598503 0.5 L 171.95631148598503 3.5 L 178.95631148598503 0 L 171.95631148598503 -3.5 L 171.95631148598503 -0.5 L 114.37659324299251 -0.5 Z"/><text text-anchor="middle" pointer-events="none" font-size="8px" fill="#000000" x="98.47815574299251" y="3" font-family="sans-serif">contain</text></g><g class="relationship" transform="translate(179.50263975459686 -31.700353486979182) rotate(493.819075443736)"><path class="outline" fill="#4C8EDA" stroke="none" d="M 25 0.5 L 58.59259627377985 0.5 L 58.59259627377985 -0.5 L 25 -0.5 Z M 90.38947127377985 0.5 L 123.9820675475597 0.5 L 123.9820675475597 3.5 L 130.9820675475597 0 L 123.9820675475597 -3.5 L 123.9820675475597 -0.5 L 90.38947127377985 -0.5 Z"/><text text-anchor="middle" pointer-events="none" font-size="8px" fill="#000000" x="74.49103377377985" y="3" transform="rotate(180 74.49103377377985 0)" font-family="sans-serif">contain</text></g><g class="relationship" transform="translate(179.50263975459686 -31.700353486979182) rotate(532.7554681008164)"><path class="outline" fill="#4C8EDA" stroke="none" d="M 25 0.5 L 45.98791512227247 0.5 L 45.98791512227247 -0.5 L 25 -0.5 Z M 77.78479012227247 0.5 L 98.77270524454494 0.5 L 98.77270524454494 3.5 L 105.77270524454494 0 L 98.77270524454494 -3.5 L 98.77270524454494 -0.5 L 77.78479012227247 -0.5 Z"/><text text-anchor="middle" pointer-events="none" font-size="8px" fill="#000000" x="61.88635262227247" y="3" transform="rotate(180 61.88635262227247 0)" font-family="sans-serif">contain</text></g><g class="relationship" transform="translate(179.50263975459686 -31.700353486979182) rotate(495.14100658468726)"><path class="outline" fill="#4C8EDA" stroke="none" d="M 25 0.5 L 108.08866686903998 0.5 L 108.08866686903998 -0.5 L 25 -0.5 Z M 139.88554186903997 0.5 L 222.97420873807997 0.5 L 222.97420873807997 3.5 L 229.97420873807997 0 L 222.97420873807997 -3.5 L 222.97420873807997 -0.5 L 139.88554186903997 -0.5 Z"/><text text-anchor="middle" pointer-events="none" font-size="8px" fill="#000000" x="123.98710436903998" y="3" transform="rotate(180 123.98710436903998 0)" font-family="sans-serif">contain</text></g><g class="relationship" transform="translate(-132.07158586086373 163.59191391841586) rotate(353.26859612403746)"><path class="outline" fill="#4C8EDA" stroke="none" d="M 25 0.5 L 46.47418757580526 0.5 L 46.47418757580526 -0.5 L 25 -0.5 Z M 78.27106257580526 0.5 L 99.74525015161052 0.5 L 99.74525015161052 3.5 L 106.74525015161052 0 L 99.74525015161052 -3.5 L 99.74525015161052 -0.5 L 78.27106257580526 -0.5 Z"/><text text-anchor="middle" pointer-events="none" font-size="8px" fill="#000000" x="62.37262507580526" y="3" font-family="sans-serif">contain</text></g><g class="relationship" transform="translate(-250.5076468298518 7.343445196562186) rotate(278.94808738536943)"><path class="outline" fill="#C990C0" stroke="none" d="M 25 0.5 L 44.37472703728996 0.5 L 44.37472703728996 -0.5 L 25 -0.5 Z M 81.94894578728996 0.5 L 101.32367282457992 0.5 L 101.32367282457992 3.5 L 108.32367282457992 0 L 101.32367282457992 -3.5 L 101.32367282457992 -0.5 L 81.94894578728996 -0.5 Z"/><text text-anchor="middle" pointer-events="none" font-size="8px" fill="#000000" x="63.16183641228996" y="3" font-family="sans-serif">islocated</text></g><g class="relationship" transform="translate(-250.5076468298518 7.343445196562186) rotate(312.84949665269016)"><path class="outline" fill="#8DCC93" stroke="none" d="M 25 0.5 L 28.94450886576729 0.5 L 28.94450886576729 -0.5 L 25 -0.5 Z M 78.07732136576729 0.5 L 82.02183023153458 0.5 L 82.02183023153458 3.5 L 89.02183023153458 0 L 82.02183023153458 -3.5 L 82.02183023153458 -0.5 L 78.07732136576729 -0.5 Z"/><text text-anchor="middle" pointer-events="none" font-size="8px" fill="#000000" x="53.51091511576729" y="3" font-family="sans-serif">hasGeotime</text></g><g class="relationship" transform="translate(-195.6661883395079 86.54986113522571) rotate(277.93848431965716)"><path class="outline" fill="#8DCC93" stroke="none" d="M 25 0.5 L 54.12154790132949 0.5 L 54.12154790132949 -0.5 L 25 -0.5 Z M 103.25436040132949 0.5 L 132.37590830265898 0.5 L 132.37590830265898 3.5 L 139.37590830265898 0 L 132.37590830265898 -3.5 L 132.37590830265898 -0.5 L 103.25436040132949 -0.5 Z"/><text text-anchor="middle" pointer-events="none" font-size="8px" fill="#000000" x="78.68795415132949" y="3" font-family="sans-serif">hasGeotime</text></g><g class="relationship" transform="translate(179.50263975459686 -31.700353486979182) rotate(187.20376673675878)"><path class="outline" fill="#8DCC93" stroke="none" d="M 25 0.5 L 149.5692183613591 0.5 L 149.5692183613591 -0.5 L 25 -0.5 Z M 198.7020308613591 0.5 L 323.2712492227182 0.5 L 323.2712492227182 3.5 L 330.2712492227182 0 L 323.2712492227182 -3.5 L 323.2712492227182 -0.5 L 198.7020308613591 -0.5 Z"/><text text-anchor="middle" pointer-events="none" font-size="8px" fill="#000000" x="174.1356246113591" y="3" transform="rotate(180 174.1356246113591 0)" font-family="sans-serif">hasGeotime</text></g><g class="relationship" transform="translate(-132.07158586086373 163.59191391841586) rotate(260.324232272618)"><path class="outline" fill="#8DCC93" stroke="none" d="M 25 0.5 L 93.58550278483786 0.5 L 93.58550278483786 -0.5 L 25 -0.5 Z M 142.71831528483784 0.5 L 211.3038180696757 0.5 L 211.3038180696757 3.5 L 218.3038180696757 0 L 211.3038180696757 -3.5 L 211.3038180696757 -0.5 L 142.71831528483784 -0.5 Z"/><text text-anchor="middle" pointer-events="none" font-size="8px" fill="#000000" x="118.15190903483786" y="3" transform="rotate(180 118.15190903483786 0)" font-family="sans-serif">hasGeotime</text></g><g class="relationship" transform="translate(-93.99168192679768 -146.59281001869167) rotate(498.3080947683495)"><path class="outline" fill="#8DCC93" stroke="none" d="M 25 0.5 L 26.369020042040944 0.5 L 26.369020042040944 -0.5 L 25 -0.5 Z M 72.38855129204094 0.5 L 73.75757133408189 0.5 L 73.75757133408189 3.5 L 80.75757133408189 0 L 73.75757133408189 -3.5 L 73.75757133408189 -0.5 L 72.38855129204094 -0.5 Z"/><text text-anchor="middle" pointer-events="none" font-size="8px" fill="#000000" x="49.378785667040944" y="3" transform="rotate(180 49.378785667040944 0)" font-family="sans-serif">hasGeoti…</text></g><g class="relationship" transform="translate(-93.99168192679768 -146.59281001869167) rotate(530.6997808859728)"><path class="outline" fill="#C990C0" stroke="none" d="M 25 0.5 L 46.50661039444394 0.5 L 46.50661039444394 -0.5 L 25 -0.5 Z M 84.08082914444394 0.5 L 105.58743953888788 0.5 L 105.58743953888788 3.5 L 112.58743953888788 0 L 105.58743953888788 -3.5 L 105.58743953888788 -0.5 L 84.08082914444394 -0.5 Z"/><text text-anchor="middle" pointer-events="none" font-size="8px" fill="#000000" x="65.29371976944394" y="3" transform="rotate(180 65.29371976944394 0)" font-family="sans-serif">islocated</text></g></g><g class="layer nodes"><g class="node" aria-label="graph-node19115" transform="translate(-202.54098903015898,-289.8492851875565)"><circle class="outline" cx="0" cy="0" r="25" fill="#4C8EDA" stroke="#2870c2" stroke-width="2px"/><text class="caption" text-anchor="middle" pointer-events="none" x="0" y="5" font-size="10px" fill="#FFFFFF" font-family="sans-serif"> Granite</text></g><g class="node" aria-label="graph-node19399" transform="translate(-30.644252534691528,-298.74264756040924)"><circle class="outline" cx="0" cy="0" r="25" fill="#4C8EDA" stroke="#2870c2" stroke-width="2px"/><text class="caption" text-anchor="middle" pointer-events="none" x="0" y="5" font-size="10px" fill="#FFFFFF" font-family="sans-serif"> Pegmatite</text></g><g class="node" aria-label="graph-node20334" transform="translate(-1.2345146075469247,148.14938422393493)"><circle class="outline" cx="0" cy="0" r="25" fill="#4C8EDA" stroke="#2870c2" stroke-width="2px"/><text class="caption" text-anchor="middle" pointer-events="none" x="0" y="5" font-size="10px" fill="#FFFFFF" font-family="sans-serif"> Gneiss</text></g><g class="node" aria-label="graph-node20737" transform="translate(98.8877966515291,-184.8185900249304)"><circle class="outline" cx="0" cy="0" r="25" fill="#4C8EDA" stroke="#2870c2" stroke-width="2px"/><text class="caption" text-anchor="middle" pointer-events="none" x="0" y="5" font-size="10px" fill="#FFFFFF" font-family="sans-serif"> Plagiogn…</text></g><g class="node" aria-label="graph-node20738" transform="translate(2.447393638334617,-205.2471759173915)"><circle class="outline" cx="0" cy="0" r="25" fill="#4C8EDA" stroke="#2870c2" stroke-width="2px"/><text class="caption" text-anchor="middle" pointer-events="none" x="0" y="0" font-size="10px" fill="#FFFFFF" font-family="sans-serif"> Biotite</text><text class="caption" text-anchor="middle" pointer-events="none" x="0" y="10" font-size="10px" fill="#FFFFFF" font-family="sans-serif"> plagio…</text></g><g class="node" aria-label="graph-node20758" transform="translate(65.16382976426972,-277.9345662159619)"><circle class="outline" cx="0" cy="0" r="25" fill="#4C8EDA" stroke="#2870c2" stroke-width="2px"/><text class="caption" text-anchor="middle" pointer-events="none" x="0" y="5" font-size="10px" fill="#FFFFFF" font-family="sans-serif"> Amphibo…</text></g><g class="node" aria-label="graph-node20812" transform="translate(49.77389443716596,-15.209353658534047)"><circle class="outline" cx="0" cy="0" r="25" fill="#4C8EDA" stroke="#2870c2" stroke-width="2px"/><text class="caption" text-anchor="middle" pointer-events="none" x="0" y="5" font-size="10px" fill="#FFFFFF" font-family="sans-serif"> Granulitite</text></g><g class="node" aria-label="graph-node20813" transform="translate(-119.07603019216602,-342.4913849711669)"><circle class="outline" cx="0" cy="0" r="25" fill="#4C8EDA" stroke="#2870c2" stroke-width="2px"/><text class="caption" text-anchor="middle" pointer-events="none" x="0" y="0" font-size="10px" fill="#FFFFFF" font-family="sans-serif"> Biotite</text><text class="caption" text-anchor="middle" pointer-events="none" x="0" y="10" font-size="10px" fill="#FFFFFF" font-family="sans-serif"> granul…</text></g><g class="node" aria-label="graph-node20837" transform="translate(-129.25203656008577,12.75405592466072)"><circle class="outline" cx="0" cy="0" r="25" fill="#4C8EDA" stroke="#2870c2" stroke-width="2px"/><text class="caption" text-anchor="middle" pointer-events="none" x="0" y="5" font-size="10px" fill="#FFFFFF" font-family="sans-serif"> Amphibo…</text></g><g class="node" aria-label="graph-node20848" transform="translate(34.2681000059949,-112.09327091098629)"><circle class="outline" cx="0" cy="0" r="25" fill="#4C8EDA" stroke="#2870c2" stroke-width="2px"/><text class="caption" text-anchor="middle" pointer-events="none" x="0" y="0" font-size="10px" fill="#FFFFFF" font-family="sans-serif"> Pyroxene</text><text class="caption" text-anchor="middle" pointer-events="none" x="0" y="10" font-size="10px" fill="#FFFFFF" font-family="sans-serif"> amphi…</text></g><g class="node" aria-label="graph-node20849" transform="translate(-47.50752449577278,-41.52964794057095)"><circle class="outline" cx="0" cy="0" r="25" fill="#4C8EDA" stroke="#2870c2" stroke-width="2px"/><text class="caption" text-anchor="middle" pointer-events="none" x="0" y="5" font-size="10px" fill="#FFFFFF" font-family="sans-serif"> Plagiocl…</text></g><g class="node" aria-label="graph-node20910" transform="translate(71.50324070865544,80.84534923918885)"><circle class="outline" cx="0" cy="0" r="25" fill="#4C8EDA" stroke="#2870c2" stroke-width="2px"/><text class="caption" text-anchor="middle" pointer-events="none" x="0" y="5" font-size="10px" fill="#FFFFFF" font-family="sans-serif"> Marble</text></g><g class="node" aria-label="graph-node20914" transform="translate(-114.76583438861172,-246.56848057800943)"><circle class="outline" cx="0" cy="0" r="25" fill="#4C8EDA" stroke="#2870c2" stroke-width="2px"/><text class="caption" text-anchor="middle" pointer-events="none" x="0" y="5" font-size="10px" fill="#FFFFFF" font-family="sans-serif"> Magnesi…</text></g><g class="node" aria-label="graph-node20953" transform="translate(-20.007750491862453,52.15745813600572)"><circle class="outline" cx="0" cy="0" r="25" fill="#4C8EDA" stroke="#2870c2" stroke-width="2px"/><text class="caption" text-anchor="middle" pointer-events="none" x="0" y="5" font-size="10px" fill="#FFFFFF" font-family="sans-serif"> Migmatite</text></g><g class="node" aria-label="graph-node20988" transform="translate(-265.5901903571236,-215.12039567465737)"><circle class="outline" cx="0" cy="0" r="25" fill="#4C8EDA" stroke="#2870c2" stroke-width="2px"/><text class="caption" text-anchor="middle" pointer-events="none" x="0" y="0" font-size="10px" fill="#FFFFFF" font-family="sans-serif"> Migmatitic</text><text class="caption" text-anchor="middle" pointer-events="none" x="0" y="10" font-size="10px" fill="#FFFFFF" font-family="sans-serif"> granit</text></g><g class="node" aria-label="graph-node21233" transform="translate(-250.5076468298518,7.343445196562186)"><circle class="outline" cx="0" cy="0" r="25" fill="#F79767" stroke="#f36924" stroke-width="2px"/><text class="caption" text-anchor="middle" pointer-events="none" x="0" y="5" font-size="10px" fill="#FFFFFF" font-family="sans-serif"> Cigou Fm</text></g><g class="node" aria-label="graph-node21236" transform="translate(-195.6661883395079,86.54986113522571)"><circle class="outline" cx="0" cy="0" r="25" fill="#F79767" stroke="#f36924" stroke-width="2px"/><text class="caption" text-anchor="middle" pointer-events="none" x="0" y="0" font-size="10px" fill="#FFFFFF" font-family="sans-serif"> Taihua</text><text class="caption" text-anchor="middle" pointer-events="none" x="0" y="10" font-size="10px" fill="#FFFFFF" font-family="sans-serif"> Compl…</text></g><g class="node" aria-label="graph-node21235" transform="translate(179.50263975459686,-31.700353486979182)"><circle class="outline" cx="0" cy="0" r="25" fill="#F79767" stroke="#f36924" stroke-width="2px"/><text class="caption" text-anchor="middle" pointer-events="none" x="0" y="0" font-size="10px" fill="#FFFFFF" font-family="sans-serif"> Hongtupo</text><text class="caption" text-anchor="middle" pointer-events="none" x="0" y="10" font-size="10px" fill="#FFFFFF" font-family="sans-serif"> Fm〔…</text></g><g class="node" aria-label="graph-node21234" transform="translate(-132.07158586086373,163.59191391841586)"><circle class="outline" cx="0" cy="0" r="25" fill="#F79767" stroke="#f36924" stroke-width="2px"/><text class="caption" text-anchor="middle" pointer-events="none" x="0" y="5" font-size="10px" fill="#FFFFFF" font-family="sans-serif"> Fuping Gr</text></g><g class="node" aria-label="graph-node21232" transform="translate(-93.99168192679768,-146.59281001869167)"><circle class="outline" cx="0" cy="0" r="25" fill="#F79767" stroke="#f36924" stroke-width="2px"/><text class="caption" text-anchor="middle" pointer-events="none" x="0" y="0" font-size="10px" fill="#FFFFFF" font-family="sans-serif"> Anshan</text><text class="caption" text-anchor="middle" pointer-events="none" x="0" y="10" font-size="10px" fill="#FFFFFF" font-family="sans-serif"> Gr</text></g><g class="node" aria-label="graph-node18646" transform="translate(-229.77054810939995,-124.35763479936597)"><circle class="outline" cx="0" cy="0" r="25" fill="#C990C0" stroke="#b261a5" stroke-width="2px"/><text class="caption" text-anchor="middle" pointer-events="none" x="0" y="5" font-size="10px" fill="#FFFFFF" font-family="sans-serif"> liaoning</text></g><g class="node" aria-label="graph-node21032" transform="translate(-172.96426148039131,-76.25081990514182)"><circle class="outline" cx="0" cy="0" r="25" fill="#8DCC93" stroke="#5db665" stroke-width="2px"/><text class="caption" text-anchor="middle" pointer-events="none" x="0" y="5" font-size="10px" fill="#2A2C34" font-family="sans-serif"> Ar</text></g></g></svg>